<svg xmlns="http://www.w3.org/2000/svg" width="787" height="178" viewBox="0 0 787 178" font-family="ui-monospace, 'SF Mono', Menlo, Consolas, monospace" role="img" aria-label="Contribution calendar">
<style>
@keyframes appear { from { opacity: 0 } to { opacity: 1 } }
.c { animation: appear 0.3s backwards }
@media (prefers-reduced-motion: reduce) { * { animation: none !important; } }
</style>
<rect width="787" height="178" rx="12" fill="#0d0d0c" stroke="#2a2926"/>
<text x="24" y="26" font-size="13" fill="#e8e6e1">$ git log --graph  <tspan fill="#7a7873">(updated 2026-07-22)</tspan></text>
<rect x="24" y="40" width="11" height="11" rx="2.5" fill="#1d1d1b" class="c" style="animation-delay:0.000s"/><rect x="24" y="54" width="11" height="11" rx="2.5" fill="#1d1d1b" class="c" style="animation-delay:0.018s"/><rect x="24" y="68" width="11" height="11" rx="2.5" fill="#1d1d1b" class="c" style="animation-delay:0.036s"/><rect x="24" y="82" width="11" height="11" rx="2.5" fill="#1d1d1b" class="c" style="animation-delay:0.054s"/><rect x="24" y="96" width="11" height="11" rx="2.5" fill="#1d1d1b" class="c" style="animation-delay:0.072s"/><rect x="24" y="110" width="11" height="11" rx="2.5" fill="#1d1d1b" class="c" style="animation-delay:0.090s"/><rect x="24" y="124" width="11" height="11" rx="2.5" fill="#1d1d1b" class="c" style="animation-delay:0.108s"/><rect x="38" y="40" width="11" height="11" rx="2.5" fill="#1d1d1b" class="c" style="animation-delay:0.018s"/><rect x="38" y="54" width="11" height="11" rx="2.5" fill="#1d1d1b" class="c" style="animation-delay:0.036s"/><rect x="38" y="68" width="11" height="11" rx="2.5" fill="#1d1d1b" class="c" style="animation-delay:0.054s"/><rect x="38" y="82" width="11" height="11" rx="2.5" fill="#1d1d1b" class="c" style="animation-delay:0.072s"/><rect x="38" y="96" width="11" height="11" rx="2.5" fill="#1d1d1b" class="c" style="animation-delay:0.090s"/><rect x="38" y="110" width="11" height="11" rx="2.5" fill="#1d1d1b" class="c" style="animation-delay:0.108s"/><rect x="38" y="124" width="11" height="11" rx="2.5" fill="#1d1d1b" class="c" style="animation-delay:0.126s"/><rect x="52" y="40" width="11" height="11" rx="2.5" fill="#1d1d1b" class="c" style="animation-delay:0.036s"/><rect x="52" y="54" width="11" height="11" rx="2.5" fill="#1d1d1b" class="c" style="animation-delay:0.054s"/><rect x="52" y="68" width="11" height="11" rx="2.5" fill="#1d1d1b" class="c" style="animation-delay:0.072s"/><rect x="52" y="82" width="11" height="11" rx="2.5" fill="#1d1d1b" class="c" style="animation-delay:0.090s"/><rect x="52" y="96" width="11" height="11" rx="2.5" fill="#1d1d1b" class="c" style="animation-delay:0.108s"/><rect x="52" y="110" width="11" height="11" rx="2.5" fill="#1d1d1b" class="c" style="animation-delay:0.126s"/><rect x="52" y="124" width="11" height="11" rx="2.5" fill="#1d1d1b" class="c" style="animation-delay:0.144s"/><rect x="66" y="40" width="11" height="11" rx="2.5" fill="#1d1d1b" class="c" style="animation-delay:0.054s"/><rect x="66" y="54" width="11" height="11" rx="2.5" fill="#1d1d1b" class="c" style="animation-delay:0.072s"/><rect x="66" y="68" width="11" height="11" rx="2.5" fill="#1d1d1b" class="c" style="animation-delay:0.090s"/><rect x="66" y="82" width="11" height="11" rx="2.5" fill="#1d1d1b" class="c" style="animation-delay:0.108s"/><rect x="66" y="96" width="11" height="11" rx="2.5" fill="#1d1d1b" class="c" style="animation-delay:0.126s"/><rect x="66" y="110" width="11" height="11" rx="2.5" fill="#1d1d1b" class="c" style="animation-delay:0.144s"/><rect x="66" y="124" width="11" height="11" rx="2.5" fill="#1d1d1b" class="c" style="animation-delay:0.162s"/><rect x="80" y="40" width="11" height="11" rx="2.5" fill="#1d1d1b" class="c" style="animation-delay:0.072s"/><rect x="80" y="54" width="11" height="11" rx="2.5" fill="#1d1d1b" class="c" style="animation-delay:0.090s"/><rect x="80" y="68" width="11" height="11" rx="2.5" fill="#1d1d1b" class="c" style="animation-delay:0.108s"/><rect x="80" y="82" width="11" height="11" rx="2.5" fill="#1d1d1b" class="c" style="animation-delay:0.126s"/><rect x="80" y="96" width="11" height="11" rx="2.5" fill="#1d1d1b" class="c" style="animation-delay:0.144s"/><rect x="80" y="110" width="11" height="11" rx="2.5" fill="#1d1d1b" class="c" style="animation-delay:0.162s"/><rect x="80" y="124" width="11" height="11" rx="2.5" fill="#1d1d1b" class="c" style="animation-delay:0.180s"/><rect x="94" y="40" width="11" height="11" rx="2.5" fill="#1d1d1b" class="c" style="animation-delay:0.090s"/><rect x="94" y="54" width="11" height="11" rx="2.5" fill="#1d1d1b" class="c" style="animation-delay:0.108s"/><rect x="94" y="68" width="11" height="11" rx="2.5" fill="#1d1d1b" class="c" style="animation-delay:0.126s"/><rect x="94" y="82" width="11" height="11" rx="2.5" fill="#1d1d1b" class="c" style="animation-delay:0.144s"/><rect x="94" y="96" width="11" height="11" rx="2.5" fill="#1d1d1b" class="c" style="animation-delay:0.162s"/><rect x="94" y="110" width="11" height="11" rx="2.5" fill="#1d1d1b" class="c" style="animation-delay:0.180s"/><rect x="94" y="124" width="11" height="11" rx="2.5" fill="#1d1d1b" class="c" style="animation-delay:0.198s"/><rect x="108" y="40" width="11" height="11" rx="2.5" fill="#1d1d1b" class="c" style="animation-delay:0.108s"/><rect x="108" y="54" width="11" height="11" rx="2.5" fill="#1d1d1b" class="c" style="animation-delay:0.126s"/><rect x="108" y="68" width="11" height="11" rx="2.5" fill="#1d1d1b" class="c" style="animation-delay:0.144s"/><rect x="108" y="82" width="11" height="11" rx="2.5" fill="#1d1d1b" class="c" style="animation-delay:0.162s"/><rect x="108" y="96" width="11" height="11" rx="2.5" fill="#1d1d1b" class="c" style="animation-delay:0.180s"/><rect x="108" y="110" width="11" height="11" rx="2.5" fill="#1d1d1b" class="c" style="animation-delay:0.198s"/><rect x="108" y="124" width="11" height="11" rx="2.5" fill="#1d1d1b" class="c" style="animation-delay:0.216s"/><rect x="122" y="40" width="11" height="11" rx="2.5" fill="#1d1d1b" class="c" style="animation-delay:0.126s"/><rect x="122" y="54" width="11" height="11" rx="2.5" fill="#1d1d1b" class="c" style="animation-delay:0.144s"/><rect x="122" y="68" width="11" height="11" rx="2.5" fill="#1d1d1b" class="c" style="animation-delay:0.162s"/><rect x="122" y="82" width="11" height="11" rx="2.5" fill="#1d1d1b" class="c" style="animation-delay:0.180s"/><rect x="122" y="96" width="11" height="11" rx="2.5" fill="#1d1d1b" class="c" style="animation-delay:0.198s"/><rect x="122" y="110" width="11" height="11" rx="2.5" fill="#1d1d1b" class="c" style="animation-delay:0.216s"/><rect x="122" y="124" width="11" height="11" rx="2.5" fill="#1d1d1b" class="c" style="animation-delay:0.234s"/><rect x="136" y="40" width="11" height="11" rx="2.5" fill="#1d1d1b" class="c" style="animation-delay:0.144s"/><rect x="136" y="54" width="11" height="11" rx="2.5" fill="#1d1d1b" class="c" style="animation-delay:0.162s"/><rect x="136" y="68" width="11" height="11" rx="2.5" fill="#1d1d1b" class="c" style="animation-delay:0.180s"/><rect x="136" y="82" width="11" height="11" rx="2.5" fill="#1d1d1b" class="c" style="animation-delay:0.198s"/><rect x="136" y="96" width="11" height="11" rx="2.5" fill="#1d1d1b" class="c" style="animation-delay:0.216s"/><rect x="136" y="110" width="11" height="11" rx="2.5" fill="#1d1d1b" class="c" style="animation-delay:0.234s"/><rect x="136" y="124" width="11" height="11" rx="2.5" fill="#1d1d1b" class="c" style="animation-delay:0.252s"/><rect x="150" y="40" width="11" height="11" rx="2.5" fill="#1d1d1b" class="c" style="animation-delay:0.162s"/><rect x="150" y="54" width="11" height="11" rx="2.5" fill="#1d1d1b" class="c" style="animation-delay:0.180s"/><rect x="150" y="68" width="11" height="11" rx="2.5" fill="#1d1d1b" class="c" style="animation-delay:0.198s"/><rect x="150" y="82" width="11" height="11" rx="2.5" fill="#1d1d1b" class="c" style="animation-delay:0.216s"/><rect x="150" y="96" width="11" height="11" rx="2.5" fill="#1d1d1b" class="c" style="animation-delay:0.234s"/><rect x="150" y="110" width="11" height="11" rx="2.5" fill="#1d1d1b" class="c" style="animation-delay:0.252s"/><rect x="150" y="124" width="11" height="11" rx="2.5" fill="#1d1d1b" class="c" style="animation-delay:0.270s"/><rect x="164" y="40" width="11" height="11" rx="2.5" fill="#1d1d1b" class="c" style="animation-delay:0.180s"/><rect x="164" y="54" width="11" height="11" rx="2.5" fill="#1d1d1b" class="c" style="animation-delay:0.198s"/><rect x="164" y="68" width="11" height="11" rx="2.5" fill="#1d1d1b" class="c" style="animation-delay:0.216s"/><rect x="164" y="82" width="11" height="11" rx="2.5" fill="#1d1d1b" class="c" style="animation-delay:0.234s"/><rect x="164" y="96" width="11" height="11" rx="2.5" fill="#1d1d1b" class="c" style="animation-delay:0.252s"/><rect x="164" y="110" width="11" height="11" rx="2.5" fill="#1d1d1b" class="c" style="animation-delay:0.270s"/><rect x="164" y="124" width="11" height="11" rx="2.5" fill="#1d1d1b" class="c" style="animation-delay:0.288s"/><rect x="178" y="40" width="11" height="11" rx="2.5" fill="#1d1d1b" class="c" style="animation-delay:0.198s"/><rect x="178" y="54" width="11" height="11" rx="2.5" fill="#1d1d1b" class="c" style="animation-delay:0.216s"/><rect x="178" y="68" width="11" height="11" rx="2.5" fill="#1d1d1b" class="c" style="animation-delay:0.234s"/><rect x="178" y="82" width="11" height="11" rx="2.5" fill="#1d1d1b" class="c" style="animation-delay:0.252s"/><rect x="178" y="96" width="11" height="11" rx="2.5" fill="#1d1d1b" class="c" style="animation-delay:0.270s"/><rect x="178" y="110" width="11" height="11" rx="2.5" fill="#1d1d1b" class="c" style="animation-delay:0.288s"/><rect x="178" y="124" width="11" height="11" rx="2.5" fill="#1d1d1b" class="c" style="animation-delay:0.306s"/><rect x="192" y="40" width="11" height="11" rx="2.5" fill="#1d1d1b" class="c" style="animation-delay:0.216s"/><rect x="192" y="54" width="11" height="11" rx="2.5" fill="#1d1d1b" class="c" style="animation-delay:0.234s"/><rect x="192" y="68" width="11" height="11" rx="2.5" fill="#1d1d1b" class="c" style="animation-delay:0.252s"/><rect x="192" y="82" width="11" height="11" rx="2.5" fill="#1d1d1b" class="c" style="animation-delay:0.270s"/><rect x="192" y="96" width="11" height="11" rx="2.5" fill="#1d1d1b" class="c" style="animation-delay:0.288s"/><rect x="192" y="110" width="11" height="11" rx="2.5" fill="#1d1d1b" class="c" style="animation-delay:0.306s"/><rect x="192" y="124" width="11" height="11" rx="2.5" fill="#1d1d1b" class="c" style="animation-delay:0.324s"/><rect x="206" y="40" width="11" height="11" rx="2.5" fill="#1d1d1b" class="c" style="animation-delay:0.234s"/><rect x="206" y="54" width="11" height="11" rx="2.5" fill="#1d1d1b" class="c" style="animation-delay:0.252s"/><rect x="206" y="68" width="11" height="11" rx="2.5" fill="#1d1d1b" class="c" style="animation-delay:0.270s"/><rect x="206" y="82" width="11" height="11" rx="2.5" fill="#1d1d1b" class="c" style="animation-delay:0.288s"/><rect x="206" y="96" width="11" height="11" rx="2.5" fill="#1d1d1b" class="c" style="animation-delay:0.306s"/><rect x="206" y="110" width="11" height="11" rx="2.5" fill="#1d1d1b" class="c" style="animation-delay:0.324s"/><rect x="206" y="124" width="11" height="11" rx="2.5" fill="#1d1d1b" class="c" style="animation-delay:0.342s"/><rect x="220" y="40" width="11" height="11" rx="2.5" fill="#1d1d1b" class="c" style="animation-delay:0.252s"/><rect x="220" y="54" width="11" height="11" rx="2.5" fill="#1d1d1b" class="c" style="animation-delay:0.270s"/><rect x="220" y="68" width="11" height="11" rx="2.5" fill="#1d1d1b" class="c" style="animation-delay:0.288s"/><rect x="220" y="82" width="11" height="11" rx="2.5" fill="#1d1d1b" class="c" style="animation-delay:0.306s"/><rect x="220" y="96" width="11" height="11" rx="2.5" fill="#1d1d1b" class="c" style="animation-delay:0.324s"/><rect x="220" y="110" width="11" height="11" rx="2.5" fill="#1d1d1b" class="c" style="animation-delay:0.342s"/><rect x="220" y="124" width="11" height="11" rx="2.5" fill="#1d1d1b" class="c" style="animation-delay:0.360s"/><rect x="234" y="40" width="11" height="11" rx="2.5" fill="#1d1d1b" class="c" style="animation-delay:0.270s"/><rect x="234" y="54" width="11" height="11" rx="2.5" fill="#1d1d1b" class="c" style="animation-delay:0.288s"/><rect x="234" y="68" width="11" height="11" rx="2.5" fill="#1d1d1b" class="c" style="animation-delay:0.306s"/><rect x="234" y="82" width="11" height="11" rx="2.5" fill="#1d1d1b" class="c" style="animation-delay:0.324s"/><rect x="234" y="96" width="11" height="11" rx="2.5" fill="#1d1d1b" class="c" style="animation-delay:0.342s"/><rect x="234" y="110" width="11" height="11" rx="2.5" fill="#1d1d1b" class="c" style="animation-delay:0.360s"/><rect x="234" y="124" width="11" height="11" rx="2.5" fill="#1d1d1b" class="c" style="animation-delay:0.378s"/><rect x="248" y="40" width="11" height="11" rx="2.5" fill="#1d1d1b" class="c" style="animation-delay:0.288s"/><rect x="248" y="54" width="11" height="11" rx="2.5" fill="#1d1d1b" class="c" style="animation-delay:0.306s"/><rect x="248" y="68" width="11" height="11" rx="2.5" fill="#1d1d1b" class="c" style="animation-delay:0.324s"/><rect x="248" y="82" width="11" height="11" rx="2.5" fill="#1d1d1b" class="c" style="animation-delay:0.342s"/><rect x="248" y="96" width="11" height="11" rx="2.5" fill="#1d1d1b" class="c" style="animation-delay:0.360s"/><rect x="248" y="110" width="11" height="11" rx="2.5" fill="#1d1d1b" class="c" style="animation-delay:0.378s"/><rect x="248" y="124" width="11" height="11" rx="2.5" fill="#1d1d1b" class="c" style="animation-delay:0.396s"/><rect x="262" y="40" width="11" height="11" rx="2.5" fill="#1d1d1b" class="c" style="animation-delay:0.306s"/><rect x="262" y="54" width="11" height="11" rx="2.5" fill="#1d1d1b" class="c" style="animation-delay:0.324s"/><rect x="262" y="68" width="11" height="11" rx="2.5" fill="#1d1d1b" class="c" style="animation-delay:0.342s"/><rect x="262" y="82" width="11" height="11" rx="2.5" fill="#1d1d1b" class="c" style="animation-delay:0.360s"/><rect x="262" y="96" width="11" height="11" rx="2.5" fill="#1d1d1b" class="c" style="animation-delay:0.378s"/><rect x="262" y="110" width="11" height="11" rx="2.5" fill="#1d1d1b" class="c" style="animation-delay:0.396s"/><rect x="262" y="124" width="11" height="11" rx="2.5" fill="#1d1d1b" class="c" style="animation-delay:0.414s"/><rect x="276" y="40" width="11" height="11" rx="2.5" fill="#1d1d1b" class="c" style="animation-delay:0.324s"/><rect x="276" y="54" width="11" height="11" rx="2.5" fill="#1d1d1b" class="c" style="animation-delay:0.342s"/><rect x="276" y="68" width="11" height="11" rx="2.5" fill="#1d1d1b" class="c" style="animation-delay:0.360s"/><rect x="276" y="82" width="11" height="11" rx="2.5" fill="#1d1d1b" class="c" style="animation-delay:0.378s"/><rect x="276" y="96" width="11" height="11" rx="2.5" fill="#1d1d1b" class="c" style="animation-delay:0.396s"/><rect x="276" y="110" width="11" height="11" rx="2.5" fill="#1d1d1b" class="c" style="animation-delay:0.414s"/><rect x="276" y="124" width="11" height="11" rx="2.5" fill="#1d1d1b" class="c" style="animation-delay:0.432s"/><rect x="290" y="40" width="11" height="11" rx="2.5" fill="#1d1d1b" class="c" style="animation-delay:0.342s"/><rect x="290" y="54" width="11" height="11" rx="2.5" fill="#1d1d1b" class="c" style="animation-delay:0.360s"/><rect x="290" y="68" width="11" height="11" rx="2.5" fill="#1d1d1b" class="c" style="animation-delay:0.378s"/><rect x="290" y="82" width="11" height="11" rx="2.5" fill="#1d1d1b" class="c" style="animation-delay:0.396s"/><rect x="290" y="96" width="11" height="11" rx="2.5" fill="#1d1d1b" class="c" style="animation-delay:0.414s"/><rect x="290" y="110" width="11" height="11" rx="2.5" fill="#1d1d1b" class="c" style="animation-delay:0.432s"/><rect x="290" y="124" width="11" height="11" rx="2.5" fill="#1d1d1b" class="c" style="animation-delay:0.450s"/><rect x="304" y="40" width="11" height="11" rx="2.5" fill="#1d1d1b" class="c" style="animation-delay:0.360s"/><rect x="304" y="54" width="11" height="11" rx="2.5" fill="#1d1d1b" class="c" style="animation-delay:0.378s"/><rect x="304" y="68" width="11" height="11" rx="2.5" fill="#1d1d1b" class="c" style="animation-delay:0.396s"/><rect x="304" y="82" width="11" height="11" rx="2.5" fill="#1d1d1b" class="c" style="animation-delay:0.414s"/><rect x="304" y="96" width="11" height="11" rx="2.5" fill="#1d1d1b" class="c" style="animation-delay:0.432s"/><rect x="304" y="110" width="11" height="11" rx="2.5" fill="#1d1d1b" class="c" style="animation-delay:0.450s"/><rect x="304" y="124" width="11" height="11" rx="2.5" fill="#1d1d1b" class="c" style="animation-delay:0.468s"/><rect x="318" y="40" width="11" height="11" rx="2.5" fill="#1d1d1b" class="c" style="animation-delay:0.378s"/><rect x="318" y="54" width="11" height="11" rx="2.5" fill="#1d1d1b" class="c" style="animation-delay:0.396s"/><rect x="318" y="68" width="11" height="11" rx="2.5" fill="#1d1d1b" class="c" style="animation-delay:0.414s"/><rect x="318" y="82" width="11" height="11" rx="2.5" fill="#1d1d1b" class="c" style="animation-delay:0.432s"/><rect x="318" y="96" width="11" height="11" rx="2.5" fill="#1d1d1b" class="c" style="animation-delay:0.450s"/><rect x="318" y="110" width="11" height="11" rx="2.5" fill="#1d1d1b" class="c" style="animation-delay:0.468s"/><rect x="318" y="124" width="11" height="11" rx="2.5" fill="#1d1d1b" class="c" style="animation-delay:0.486s"/><rect x="332" y="40" width="11" height="11" rx="2.5" fill="#1d1d1b" class="c" style="animation-delay:0.396s"/><rect x="332" y="54" width="11" height="11" rx="2.5" fill="#1d1d1b" class="c" style="animation-delay:0.414s"/><rect x="332" y="68" width="11" height="11" rx="2.5" fill="#1d1d1b" class="c" style="animation-delay:0.432s"/><rect x="332" y="82" width="11" height="11" rx="2.5" fill="#1d1d1b" class="c" style="animation-delay:0.450s"/><rect x="332" y="96" width="11" height="11" rx="2.5" fill="#1d1d1b" class="c" style="animation-delay:0.468s"/><rect x="332" y="110" width="11" height="11" rx="2.5" fill="#1d1d1b" class="c" style="animation-delay:0.486s"/><rect x="332" y="124" width="11" height="11" rx="2.5" fill="#1d1d1b" class="c" style="animation-delay:0.504s"/><rect x="346" y="40" width="11" height="11" rx="2.5" fill="#1d1d1b" class="c" style="animation-delay:0.414s"/><rect x="346" y="54" width="11" height="11" rx="2.5" fill="#1d1d1b" class="c" style="animation-delay:0.432s"/><rect x="346" y="68" width="11" height="11" rx="2.5" fill="#1d1d1b" class="c" style="animation-delay:0.450s"/><rect x="346" y="82" width="11" height="11" rx="2.5" fill="#1d1d1b" class="c" style="animation-delay:0.468s"/><rect x="346" y="96" width="11" height="11" rx="2.5" fill="#1d1d1b" class="c" style="animation-delay:0.486s"/><rect x="346" y="110" width="11" height="11" rx="2.5" fill="#1d1d1b" class="c" style="animation-delay:0.504s"/><rect x="346" y="124" width="11" height="11" rx="2.5" fill="#1d1d1b" class="c" style="animation-delay:0.522s"/><rect x="360" y="40" width="11" height="11" rx="2.5" fill="#1d1d1b" class="c" style="animation-delay:0.432s"/><rect x="360" y="54" width="11" height="11" rx="2.5" fill="#1d1d1b" class="c" style="animation-delay:0.450s"/><rect x="360" y="68" width="11" height="11" rx="2.5" fill="#1d1d1b" class="c" style="animation-delay:0.468s"/><rect x="360" y="82" width="11" height="11" rx="2.5" fill="#1d1d1b" class="c" style="animation-delay:0.486s"/><rect x="360" y="96" width="11" height="11" rx="2.5" fill="#1d1d1b" class="c" style="animation-delay:0.504s"/><rect x="360" y="110" width="11" height="11" rx="2.5" fill="#1d1d1b" class="c" style="animation-delay:0.522s"/><rect x="360" y="124" width="11" height="11" rx="2.5" fill="#1d1d1b" class="c" style="animation-delay:0.540s"/><rect x="374" y="40" width="11" height="11" rx="2.5" fill="#1d1d1b" class="c" style="animation-delay:0.450s"/><rect x="374" y="54" width="11" height="11" rx="2.5" fill="#1d1d1b" class="c" style="animation-delay:0.468s"/><rect x="374" y="68" width="11" height="11" rx="2.5" fill="#1d1d1b" class="c" style="animation-delay:0.486s"/><rect x="374" y="82" width="11" height="11" rx="2.5" fill="#1d1d1b" class="c" style="animation-delay:0.504s"/><rect x="374" y="96" width="11" height="11" rx="2.5" fill="#1d1d1b" class="c" style="animation-delay:0.522s"/><rect x="374" y="110" width="11" height="11" rx="2.5" fill="#1d1d1b" class="c" style="animation-delay:0.540s"/><rect x="374" y="124" width="11" height="11" rx="2.5" fill="#1d1d1b" class="c" style="animation-delay:0.558s"/><rect x="388" y="40" width="11" height="11" rx="2.5" fill="#1d1d1b" class="c" style="animation-delay:0.468s"/><rect x="388" y="54" width="11" height="11" rx="2.5" fill="#1d1d1b" class="c" style="animation-delay:0.486s"/><rect x="388" y="68" width="11" height="11" rx="2.5" fill="#1d1d1b" class="c" style="animation-delay:0.504s"/><rect x="388" y="82" width="11" height="11" rx="2.5" fill="#1d1d1b" class="c" style="animation-delay:0.522s"/><rect x="388" y="96" width="11" height="11" rx="2.5" fill="#1d1d1b" class="c" style="animation-delay:0.540s"/><rect x="388" y="110" width="11" height="11" rx="2.5" fill="#1d1d1b" class="c" style="animation-delay:0.558s"/><rect x="388" y="124" width="11" height="11" rx="2.5" fill="#1d1d1b" class="c" style="animation-delay:0.576s"/><rect x="402" y="40" width="11" height="11" rx="2.5" fill="#1d1d1b" class="c" style="animation-delay:0.486s"/><rect x="402" y="54" width="11" height="11" rx="2.5" fill="#1d1d1b" class="c" style="animation-delay:0.504s"/><rect x="402" y="68" width="11" height="11" rx="2.5" fill="#1d1d1b" class="c" style="animation-delay:0.522s"/><rect x="402" y="82" width="11" height="11" rx="2.5" fill="#1d1d1b" class="c" style="animation-delay:0.540s"/><rect x="402" y="96" width="11" height="11" rx="2.5" fill="#1d1d1b" class="c" style="animation-delay:0.558s"/><rect x="402" y="110" width="11" height="11" rx="2.5" fill="#1d1d1b" class="c" style="animation-delay:0.576s"/><rect x="402" y="124" width="11" height="11" rx="2.5" fill="#1d1d1b" class="c" style="animation-delay:0.594s"/><rect x="416" y="40" width="11" height="11" rx="2.5" fill="#1d1d1b" class="c" style="animation-delay:0.504s"/><rect x="416" y="54" width="11" height="11" rx="2.5" fill="#1d1d1b" class="c" style="animation-delay:0.522s"/><rect x="416" y="68" width="11" height="11" rx="2.5" fill="#1d1d1b" class="c" style="animation-delay:0.540s"/><rect x="416" y="82" width="11" height="11" rx="2.5" fill="#1d1d1b" class="c" style="animation-delay:0.558s"/><rect x="416" y="96" width="11" height="11" rx="2.5" fill="#1d1d1b" class="c" style="animation-delay:0.576s"/><rect x="416" y="110" width="11" height="11" rx="2.5" fill="#1d1d1b" class="c" style="animation-delay:0.594s"/><rect x="416" y="124" width="11" height="11" rx="2.5" fill="#1d1d1b" class="c" style="animation-delay:0.612s"/><rect x="430" y="40" width="11" height="11" rx="2.5" fill="#1d1d1b" class="c" style="animation-delay:0.522s"/><rect x="430" y="54" width="11" height="11" rx="2.5" fill="#1d1d1b" class="c" style="animation-delay:0.540s"/><rect x="430" y="68" width="11" height="11" rx="2.5" fill="#1d1d1b" class="c" style="animation-delay:0.558s"/><rect x="430" y="82" width="11" height="11" rx="2.5" fill="#1d1d1b" class="c" style="animation-delay:0.576s"/><rect x="430" y="96" width="11" height="11" rx="2.5" fill="#1d1d1b" class="c" style="animation-delay:0.594s"/><rect x="430" y="110" width="11" height="11" rx="2.5" fill="#1d1d1b" class="c" style="animation-delay:0.612s"/><rect x="430" y="124" width="11" height="11" rx="2.5" fill="#1d1d1b" class="c" style="animation-delay:0.630s"/><rect x="444" y="40" width="11" height="11" rx="2.5" fill="#1d1d1b" class="c" style="animation-delay:0.540s"/><rect x="444" y="54" width="11" height="11" rx="2.5" fill="#1d1d1b" class="c" style="animation-delay:0.558s"/><rect x="444" y="68" width="11" height="11" rx="2.5" fill="#1d1d1b" class="c" style="animation-delay:0.576s"/><rect x="444" y="82" width="11" height="11" rx="2.5" fill="#1d1d1b" class="c" style="animation-delay:0.594s"/><rect x="444" y="96" width="11" height="11" rx="2.5" fill="#1d1d1b" class="c" style="animation-delay:0.612s"/><rect x="444" y="110" width="11" height="11" rx="2.5" fill="#1d1d1b" class="c" style="animation-delay:0.630s"/><rect x="444" y="124" width="11" height="11" rx="2.5" fill="#1d1d1b" class="c" style="animation-delay:0.648s"/><rect x="458" y="40" width="11" height="11" rx="2.5" fill="#1d1d1b" class="c" style="animation-delay:0.558s"/><rect x="458" y="54" width="11" height="11" rx="2.5" fill="#1d1d1b" class="c" style="animation-delay:0.576s"/><rect x="458" y="68" width="11" height="11" rx="2.5" fill="#1d1d1b" class="c" style="animation-delay:0.594s"/><rect x="458" y="82" width="11" height="11" rx="2.5" fill="#1d1d1b" class="c" style="animation-delay:0.612s"/><rect x="458" y="96" width="11" height="11" rx="2.5" fill="#1d1d1b" class="c" style="animation-delay:0.630s"/><rect x="458" y="110" width="11" height="11" rx="2.5" fill="#1d1d1b" class="c" style="animation-delay:0.648s"/><rect x="458" y="124" width="11" height="11" rx="2.5" fill="#1d1d1b" class="c" style="animation-delay:0.666s"/><rect x="472" y="40" width="11" height="11" rx="2.5" fill="#1d1d1b" class="c" style="animation-delay:0.576s"/><rect x="472" y="54" width="11" height="11" rx="2.5" fill="#1d1d1b" class="c" style="animation-delay:0.594s"/><rect x="472" y="68" width="11" height="11" rx="2.5" fill="#1d1d1b" class="c" style="animation-delay:0.612s"/><rect x="472" y="82" width="11" height="11" rx="2.5" fill="#1d1d1b" class="c" style="animation-delay:0.630s"/><rect x="472" y="96" width="11" height="11" rx="2.5" fill="#1d1d1b" class="c" style="animation-delay:0.648s"/><rect x="472" y="110" width="11" height="11" rx="2.5" fill="#1d1d1b" class="c" style="animation-delay:0.666s"/><rect x="472" y="124" width="11" height="11" rx="2.5" fill="#1d1d1b" class="c" style="animation-delay:0.684s"/><rect x="486" y="40" width="11" height="11" rx="2.5" fill="#1d1d1b" class="c" style="animation-delay:0.594s"/><rect x="486" y="54" width="11" height="11" rx="2.5" fill="#1d1d1b" class="c" style="animation-delay:0.612s"/><rect x="486" y="68" width="11" height="11" rx="2.5" fill="#1d1d1b" class="c" style="animation-delay:0.630s"/><rect x="486" y="82" width="11" height="11" rx="2.5" fill="#1d1d1b" class="c" style="animation-delay:0.648s"/><rect x="486" y="96" width="11" height="11" rx="2.5" fill="#1d1d1b" class="c" style="animation-delay:0.666s"/><rect x="486" y="110" width="11" height="11" rx="2.5" fill="#1d1d1b" class="c" style="animation-delay:0.684s"/><rect x="486" y="124" width="11" height="11" rx="2.5" fill="#1d1d1b" class="c" style="animation-delay:0.702s"/><rect x="500" y="40" width="11" height="11" rx="2.5" fill="#1d1d1b" class="c" style="animation-delay:0.612s"/><rect x="500" y="54" width="11" height="11" rx="2.5" fill="#1d1d1b" class="c" style="animation-delay:0.630s"/><rect x="500" y="68" width="11" height="11" rx="2.5" fill="#1d1d1b" class="c" style="animation-delay:0.648s"/><rect x="500" y="82" width="11" height="11" rx="2.5" fill="#1d1d1b" class="c" style="animation-delay:0.666s"/><rect x="500" y="96" width="11" height="11" rx="2.5" fill="#1d1d1b" class="c" style="animation-delay:0.684s"/><rect x="500" y="110" width="11" height="11" rx="2.5" fill="#1d1d1b" class="c" style="animation-delay:0.702s"/><rect x="500" y="124" width="11" height="11" rx="2.5" fill="#1d1d1b" class="c" style="animation-delay:0.720s"/><rect x="514" y="40" width="11" height="11" rx="2.5" fill="#1d1d1b" class="c" style="animation-delay:0.630s"/><rect x="514" y="54" width="11" height="11" rx="2.5" fill="#1d1d1b" class="c" style="animation-delay:0.648s"/><rect x="514" y="68" width="11" height="11" rx="2.5" fill="#1d1d1b" class="c" style="animation-delay:0.666s"/><rect x="514" y="82" width="11" height="11" rx="2.5" fill="#1d1d1b" class="c" style="animation-delay:0.684s"/><rect x="514" y="96" width="11" height="11" rx="2.5" fill="#1d1d1b" class="c" style="animation-delay:0.702s"/><rect x="514" y="110" width="11" height="11" rx="2.5" fill="#1d1d1b" class="c" style="animation-delay:0.720s"/><rect x="514" y="124" width="11" height="11" rx="2.5" fill="#1d1d1b" class="c" style="animation-delay:0.738s"/><rect x="528" y="40" width="11" height="11" rx="2.5" fill="#1d1d1b" class="c" style="animation-delay:0.648s"/><rect x="528" y="54" width="11" height="11" rx="2.5" fill="#1d1d1b" class="c" style="animation-delay:0.666s"/><rect x="528" y="68" width="11" height="11" rx="2.5" fill="#1d1d1b" class="c" style="animation-delay:0.684s"/><rect x="528" y="82" width="11" height="11" rx="2.5" fill="#1d1d1b" class="c" style="animation-delay:0.702s"/><rect x="528" y="96" width="11" height="11" rx="2.5" fill="#1d1d1b" class="c" style="animation-delay:0.720s"/><rect x="528" y="110" width="11" height="11" rx="2.5" fill="#1d1d1b" class="c" style="animation-delay:0.738s"/><rect x="528" y="124" width="11" height="11" rx="2.5" fill="#1d1d1b" class="c" style="animation-delay:0.756s"/><rect x="542" y="40" width="11" height="11" rx="2.5" fill="#1d1d1b" class="c" style="animation-delay:0.666s"/><rect x="542" y="54" width="11" height="11" rx="2.5" fill="#1d1d1b" class="c" style="animation-delay:0.684s"/><rect x="542" y="68" width="11" height="11" rx="2.5" fill="#1d1d1b" class="c" style="animation-delay:0.702s"/><rect x="542" y="82" width="11" height="11" rx="2.5" fill="#1d1d1b" class="c" style="animation-delay:0.720s"/><rect x="542" y="96" width="11" height="11" rx="2.5" fill="#1d1d1b" class="c" style="animation-delay:0.738s"/><rect x="542" y="110" width="11" height="11" rx="2.5" fill="#1d1d1b" class="c" style="animation-delay:0.756s"/><rect x="542" y="124" width="11" height="11" rx="2.5" fill="#1d1d1b" class="c" style="animation-delay:0.774s"/><rect x="556" y="40" width="11" height="11" rx="2.5" fill="#1d1d1b" class="c" style="animation-delay:0.684s"/><rect x="556" y="54" width="11" height="11" rx="2.5" fill="#1d1d1b" class="c" style="animation-delay:0.702s"/><rect x="556" y="68" width="11" height="11" rx="2.5" fill="#1d1d1b" class="c" style="animation-delay:0.720s"/><rect x="556" y="82" width="11" height="11" rx="2.5" fill="#1d1d1b" class="c" style="animation-delay:0.738s"/><rect x="556" y="96" width="11" height="11" rx="2.5" fill="#1d1d1b" class="c" style="animation-delay:0.756s"/><rect x="556" y="110" width="11" height="11" rx="2.5" fill="#1d1d1b" class="c" style="animation-delay:0.774s"/><rect x="556" y="124" width="11" height="11" rx="2.5" fill="#1d1d1b" class="c" style="animation-delay:0.792s"/><rect x="570" y="40" width="11" height="11" rx="2.5" fill="#1d1d1b" class="c" style="animation-delay:0.702s"/><rect x="570" y="54" width="11" height="11" rx="2.5" fill="#1d1d1b" class="c" style="animation-delay:0.720s"/><rect x="570" y="68" width="11" height="11" rx="2.5" fill="#1d1d1b" class="c" style="animation-delay:0.738s"/><rect x="570" y="82" width="11" height="11" rx="2.5" fill="#1d1d1b" class="c" style="animation-delay:0.756s"/><rect x="570" y="96" width="11" height="11" rx="2.5" fill="#1d1d1b" class="c" style="animation-delay:0.774s"/><rect x="570" y="110" width="11" height="11" rx="2.5" fill="#1d1d1b" class="c" style="animation-delay:0.792s"/><rect x="570" y="124" width="11" height="11" rx="2.5" fill="#1d1d1b" class="c" style="animation-delay:0.810s"/><rect x="584" y="40" width="11" height="11" rx="2.5" fill="#1d1d1b" class="c" style="animation-delay:0.720s"/><rect x="584" y="54" width="11" height="11" rx="2.5" fill="#1d1d1b" class="c" style="animation-delay:0.738s"/><rect x="584" y="68" width="11" height="11" rx="2.5" fill="#1d1d1b" class="c" style="animation-delay:0.756s"/><rect x="584" y="82" width="11" height="11" rx="2.5" fill="#1d1d1b" class="c" style="animation-delay:0.774s"/><rect x="584" y="96" width="11" height="11" rx="2.5" fill="#1d1d1b" class="c" style="animation-delay:0.792s"/><rect x="584" y="110" width="11" height="11" rx="2.5" fill="#1d1d1b" class="c" style="animation-delay:0.810s"/><rect x="584" y="124" width="11" height="11" rx="2.5" fill="#1d1d1b" class="c" style="animation-delay:0.828s"/><rect x="598" y="40" width="11" height="11" rx="2.5" fill="#1d1d1b" class="c" style="animation-delay:0.738s"/><rect x="598" y="54" width="11" height="11" rx="2.5" fill="#1d1d1b" class="c" style="animation-delay:0.756s"/><rect x="598" y="68" width="11" height="11" rx="2.5" fill="#1d1d1b" class="c" style="animation-delay:0.774s"/><rect x="598" y="82" width="11" height="11" rx="2.5" fill="#1d1d1b" class="c" style="animation-delay:0.792s"/><rect x="598" y="96" width="11" height="11" rx="2.5" fill="#1d1d1b" class="c" style="animation-delay:0.810s"/><rect x="598" y="110" width="11" height="11" rx="2.5" fill="#1d1d1b" class="c" style="animation-delay:0.828s"/><rect x="598" y="124" width="11" height="11" rx="2.5" fill="#1d1d1b" class="c" style="animation-delay:0.846s"/><rect x="612" y="40" width="11" height="11" rx="2.5" fill="#1d1d1b" class="c" style="animation-delay:0.756s"/><rect x="612" y="54" width="11" height="11" rx="2.5" fill="#1d1d1b" class="c" style="animation-delay:0.774s"/><rect x="612" y="68" width="11" height="11" rx="2.5" fill="#1d1d1b" class="c" style="animation-delay:0.792s"/><rect x="612" y="82" width="11" height="11" rx="2.5" fill="#1d1d1b" class="c" style="animation-delay:0.810s"/><rect x="612" y="96" width="11" height="11" rx="2.5" fill="#1d1d1b" class="c" style="animation-delay:0.828s"/><rect x="612" y="110" width="11" height="11" rx="2.5" fill="#1d1d1b" class="c" style="animation-delay:0.846s"/><rect x="612" y="124" width="11" height="11" rx="2.5" fill="#1d1d1b" class="c" style="animation-delay:0.864s"/><rect x="626" y="40" width="11" height="11" rx="2.5" fill="#1d1d1b" class="c" style="animation-delay:0.774s"/><rect x="626" y="54" width="11" height="11" rx="2.5" fill="#1d1d1b" class="c" style="animation-delay:0.792s"/><rect x="626" y="68" width="11" height="11" rx="2.5" fill="#1d1d1b" class="c" style="animation-delay:0.810s"/><rect x="626" y="82" width="11" height="11" rx="2.5" fill="#1d1d1b" class="c" style="animation-delay:0.828s"/><rect x="626" y="96" width="11" height="11" rx="2.5" fill="#1d1d1b" class="c" style="animation-delay:0.846s"/><rect x="626" y="110" width="11" height="11" rx="2.5" fill="#1d1d1b" class="c" style="animation-delay:0.864s"/><rect x="626" y="124" width="11" height="11" rx="2.5" fill="#1d1d1b" class="c" style="animation-delay:0.882s"/><rect x="640" y="40" width="11" height="11" rx="2.5" fill="#1d1d1b" class="c" style="animation-delay:0.792s"/><rect x="640" y="54" width="11" height="11" rx="2.5" fill="#1d1d1b" class="c" style="animation-delay:0.810s"/><rect x="640" y="68" width="11" height="11" rx="2.5" fill="#1d1d1b" class="c" style="animation-delay:0.828s"/><rect x="640" y="82" width="11" height="11" rx="2.5" fill="#1d1d1b" class="c" style="animation-delay:0.846s"/><rect x="640" y="96" width="11" height="11" rx="2.5" fill="#1d1d1b" class="c" style="animation-delay:0.864s"/><rect x="640" y="110" width="11" height="11" rx="2.5" fill="#1d1d1b" class="c" style="animation-delay:0.882s"/><rect x="640" y="124" width="11" height="11" rx="2.5" fill="#1d1d1b" class="c" style="animation-delay:0.900s"/><rect x="654" y="40" width="11" height="11" rx="2.5" fill="#1d1d1b" class="c" style="animation-delay:0.810s"/><rect x="654" y="54" width="11" height="11" rx="2.5" fill="#1d1d1b" class="c" style="animation-delay:0.828s"/><rect x="654" y="68" width="11" height="11" rx="2.5" fill="#1d1d1b" class="c" style="animation-delay:0.846s"/><rect x="654" y="82" width="11" height="11" rx="2.5" fill="#1d1d1b" class="c" style="animation-delay:0.864s"/><rect x="654" y="96" width="11" height="11" rx="2.5" fill="#1d1d1b" class="c" style="animation-delay:0.882s"/><rect x="654" y="110" width="11" height="11" rx="2.5" fill="#1d1d1b" class="c" style="animation-delay:0.900s"/><rect x="654" y="124" width="11" height="11" rx="2.5" fill="#1d1d1b" class="c" style="animation-delay:0.918s"/><rect x="668" y="40" width="11" height="11" rx="2.5" fill="#1d1d1b" class="c" style="animation-delay:0.828s"/><rect x="668" y="54" width="11" height="11" rx="2.5" fill="#1d1d1b" class="c" style="animation-delay:0.846s"/><rect x="668" y="68" width="11" height="11" rx="2.5" fill="#1d1d1b" class="c" style="animation-delay:0.864s"/><rect x="668" y="82" width="11" height="11" rx="2.5" fill="#1d1d1b" class="c" style="animation-delay:0.882s"/><rect x="668" y="96" width="11" height="11" rx="2.5" fill="#1d1d1b" class="c" style="animation-delay:0.900s"/><rect x="668" y="110" width="11" height="11" rx="2.5" fill="#1d1d1b" class="c" style="animation-delay:0.918s"/><rect x="668" y="124" width="11" height="11" rx="2.5" fill="#1d1d1b" class="c" style="animation-delay:0.936s"/><rect x="682" y="40" width="11" height="11" rx="2.5" fill="#1d1d1b" class="c" style="animation-delay:0.846s"/><rect x="682" y="54" width="11" height="11" rx="2.5" fill="#1d1d1b" class="c" style="animation-delay:0.864s"/><rect x="682" y="68" width="11" height="11" rx="2.5" fill="#1d1d1b" class="c" style="animation-delay:0.882s"/><rect x="682" y="82" width="11" height="11" rx="2.5" fill="#1d1d1b" class="c" style="animation-delay:0.900s"/><rect x="682" y="96" width="11" height="11" rx="2.5" fill="#1d1d1b" class="c" style="animation-delay:0.918s"/><rect x="682" y="110" width="11" height="11" rx="2.5" fill="#1d1d1b" class="c" style="animation-delay:0.936s"/><rect x="682" y="124" width="11" height="11" rx="2.5" fill="#1d1d1b" class="c" style="animation-delay:0.954s"/><rect x="696" y="40" width="11" height="11" rx="2.5" fill="#1d1d1b" class="c" style="animation-delay:0.864s"/><rect x="696" y="54" width="11" height="11" rx="2.5" fill="#1d1d1b" class="c" style="animation-delay:0.882s"/><rect x="696" y="68" width="11" height="11" rx="2.5" fill="#1d1d1b" class="c" style="animation-delay:0.900s"/><rect x="696" y="82" width="11" height="11" rx="2.5" fill="#1d1d1b" class="c" style="animation-delay:0.918s"/><rect x="696" y="96" width="11" height="11" rx="2.5" fill="#1d1d1b" class="c" style="animation-delay:0.936s"/><rect x="696" y="110" width="11" height="11" rx="2.5" fill="#1d1d1b" class="c" style="animation-delay:0.954s"/><rect x="696" y="124" width="11" height="11" rx="2.5" fill="#1d1d1b" class="c" style="animation-delay:0.972s"/><rect x="710" y="40" width="11" height="11" rx="2.5" fill="#1d1d1b" class="c" style="animation-delay:0.882s"/><rect x="710" y="54" width="11" height="11" rx="2.5" fill="#1d1d1b" class="c" style="animation-delay:0.900s"/><rect x="710" y="68" width="11" height="11" rx="2.5" fill="#1d1d1b" class="c" style="animation-delay:0.918s"/><rect x="710" y="82" width="11" height="11" rx="2.5" fill="#1d1d1b" class="c" style="animation-delay:0.936s"/><rect x="710" y="96" width="11" height="11" rx="2.5" fill="#1d1d1b" class="c" style="animation-delay:0.954s"/><rect x="710" y="110" width="11" height="11" rx="2.5" fill="#1d1d1b" class="c" style="animation-delay:0.972s"/><rect x="710" y="124" width="11" height="11" rx="2.5" fill="#1d1d1b" class="c" style="animation-delay:0.990s"/><rect x="724" y="40" width="11" height="11" rx="2.5" fill="#1d1d1b" class="c" style="animation-delay:0.900s"/><rect x="724" y="54" width="11" height="11" rx="2.5" fill="#1d1d1b" class="c" style="animation-delay:0.918s"/><rect x="724" y="68" width="11" height="11" rx="2.5" fill="#1d1d1b" class="c" style="animation-delay:0.936s"/><rect x="724" y="82" width="11" height="11" rx="2.5" fill="#1d1d1b" class="c" style="animation-delay:0.954s"/><rect x="724" y="96" width="11" height="11" rx="2.5" fill="#1d1d1b" class="c" style="animation-delay:0.972s"/><rect x="724" y="110" width="11" height="11" rx="2.5" fill="#1d1d1b" class="c" style="animation-delay:0.990s"/><rect x="724" y="124" width="11" height="11" rx="2.5" fill="#8a8f86" class="c" style="animation-delay:1.008s"/><rect x="738" y="40" width="11" height="11" rx="2.5" fill="#1d1d1b" class="c" style="animation-delay:0.918s"/><rect x="738" y="54" width="11" height="11" rx="2.5" fill="#1d1d1b" class="c" style="animation-delay:0.936s"/><rect x="738" y="68" width="11" height="11" rx="2.5" fill="#1d1d1b" class="c" style="animation-delay:0.954s"/><rect x="738" y="82" width="11" height="11" rx="2.5" fill="#1d1d1b" class="c" style="animation-delay:0.972s"/><rect x="738" y="96" width="11" height="11" rx="2.5" fill="#e8e6e1" class="c" style="animation-delay:0.990s"/><rect x="738" y="110" width="11" height="11" rx="2.5" fill="#e8e6e1" class="c" style="animation-delay:1.008s"/><rect x="738" y="124" width="11" height="11" rx="2.5" fill="#8a8f86" class="c" style="animation-delay:1.026s"/><rect x="752" y="40" width="11" height="11" rx="2.5" fill="#383934" class="c" style="animation-delay:0.936s"/><rect x="752" y="54" width="11" height="11" rx="2.5" fill="#5c5f58" class="c" style="animation-delay:0.954s"/><rect x="752" y="68" width="11" height="11" rx="2.5" fill="#1d1d1b" class="c" style="animation-delay:0.972s"/><rect x="752" y="82" width="11" height="11" rx="2.5" fill="#e8e6e1" class="c" style="animation-delay:0.990s"/>
<text x="627" y="157" font-size="11" fill="#7a7873">less</text>
<rect x="659" y="148" width="11" height="11" rx="2.5" fill="#1d1d1b"/><rect x="673" y="148" width="11" height="11" rx="2.5" fill="#383934"/><rect x="687" y="148" width="11" height="11" rx="2.5" fill="#5c5f58"/><rect x="701" y="148" width="11" height="11" rx="2.5" fill="#8a8f86"/><rect x="715" y="148" width="11" height="11" rx="2.5" fill="#e8e6e1"/>
<text x="733" y="157" font-size="11" fill="#7a7873">more</text>
<text x="24" y="158" font-size="12" fill="#7a7873">73 contributions in the last year</text>
</svg>