<svg xmlns="http://www.w3.org/2000/svg" width="410" height="266" viewBox="0 0 410 266" font-family="ui-monospace, 'SF Mono', 'Cascadia Code', Menlo, Consolas, monospace" role="img" aria-label="Profile info card"><style>
@keyframes appear { from { opacity: 0 } to { opacity: 1 } }
@keyframes blink { 0%,55% { opacity: 1 } 56%,100% { opacity: 0 } }
.ch { animation: appear 0.01s both }
.row { animation: appear 0.35s both }
@media (prefers-reduced-motion: reduce) { * { animation: none !important } }
</style><rect width="410" height="266" rx="12" fill="#100c08" stroke="#3a2c14"/><rect width="410" height="34" rx="12" fill="#171209"/><rect y="22" width="410" height="12" fill="#171209"/><circle cx="22" cy="17" r="5.5" fill="#4a3a1e"/><circle cx="42" cy="17" r="5.5" fill="#4a3a1e"/><circle cx="62" cy="17" r="5.5" fill="#c98a3d"/><text x="205" y="21" font-size="12" fill="#8a7a5f" text-anchor="middle">neofetch</text><text x="24" y="58" font-size="14" fill="#ffb454" font-weight="bold">SeanL128@github</text><text x="24" y="74" font-size="12" fill="#8a7a5f">------------------------</text><g class="row" style="animation-delay:0.50s"><text x="24" y="98" font-size="13.5" fill="#ffb454">os</text><text x="116" y="98" font-size="13.5" fill="#e8dcc8">macOS / wherever agents run</text></g><g class="row" style="animation-delay:0.64s"><text x="24" y="119" font-size="13.5" fill="#ffb454">shell</text><text x="116" y="119" font-size="13.5" fill="#e8dcc8">claude (fable-5)</text></g><g class="row" style="animation-delay:0.78s"><text x="24" y="140" font-size="13.5" fill="#ffb454">focus</text><text x="116" y="140" font-size="13.5" fill="#e8dcc8">AI agent tooling, plugins</text></g><g class="row" style="animation-delay:0.92s"><text x="24" y="161" font-size="13.5" fill="#ffb454">stack</text><text x="116" y="161" font-size="13.5" fill="#e8dcc8">Python, TypeScript, Swift</text></g><g class="row" style="animation-delay:1.06s"><text x="24" y="182" font-size="13.5" fill="#ffb454">building</text><text x="116" y="182" font-size="13.5" fill="#e8dcc8">alloyd, nightcrew, autodev</text></g><g class="row" style="animation-delay:1.20s"><text x="24" y="203" font-size="13.5" fill="#ffb454">plugins</text><text x="116" y="203" font-size="13.5" fill="#e8dcc8">deslop, shush, blueprint-forge</text></g><g class="row" style="animation-delay:1.34s"><text x="24" y="224" font-size="13.5" fill="#ffb454">web</text><text x="116" y="224" font-size="13.5" fill="#e8dcc8">seanlindsay.xyz</text></g><g class="row" style="animation-delay:1.68s"><rect x="24" y="242" width="16" height="9" rx="2" fill="#2b1d0e"/><rect x="46" y="242" width="16" height="9" rx="2" fill="#4a3a1e"/><rect x="68" y="242" width="16" height="9" rx="2" fill="#8a5a24"/><rect x="90" y="242" width="16" height="9" rx="2" fill="#c98a3d"/><rect x="112" y="242" width="16" height="9" rx="2" fill="#ffb454"/><rect x="134" y="242" width="16" height="9" rx="2" fill="#ffd9a0"/><rect x="156" y="242" width="16" height="9" rx="2" fill="#e8dcc8"/></g></svg>