<svg xmlns="http://www.w3.org/2000/svg" width="410" height="266" viewBox="0 0 410 266" font-family="ui-monospace, 'SF Mono', 'Cascadia Code', Menlo, Consolas, monospace" role="img" aria-label="Profile info card"><style>
@keyframes appear { from { opacity: 0 } to { opacity: 1 } }
@keyframes blink { 0%,55% { opacity: 1 } 56%,100% { opacity: 0 } }
.ch { animation: appear 0.01s both }
.row { animation: appear 0.35s both }
@media (prefers-reduced-motion: reduce) { * { animation: none !important } }
</style><rect width="410" height="266" rx="12" fill="#0d0d0c" stroke="#2a2926"/><rect width="410" height="34" rx="12" fill="#151513"/><rect y="22" width="410" height="12" fill="#151513"/><circle cx="22" cy="17" r="5.5" fill="#2a2926"/><circle cx="42" cy="17" r="5.5" fill="#2a2926"/><circle cx="62" cy="17" r="5.5" fill="#8a8f86"/><text x="205" y="21" font-size="12" fill="#7a7873" text-anchor="middle">SeanL128</text><text x="24" y="58" font-size="14" fill="#ffffff" font-weight="bold">SeanL128@github</text><text x="24" y="74" font-size="12" fill="#7a7873">------------------------</text><g class="row" style="animation-delay:0.50s"><text x="24" y="98" font-size="13.5" fill="#8a8f86">role</text><text x="116" y="98" font-size="13.5" fill="#e8e6e1">AI agent tooling engineer</text></g><g class="row" style="animation-delay:0.64s"><text x="24" y="119" font-size="13.5" fill="#8a8f86">open to</text><text x="116" y="119" font-size="13.5" fill="#e8e6e1">agent infra / dev-tools work</text></g><g class="row" style="animation-delay:0.78s"><text x="24" y="140" font-size="13.5" fill="#8a8f86">building</text><text x="116" y="140" font-size="13.5" fill="#e8e6e1">alloyd, nightcrew, autodev</text></g><g class="row" style="animation-delay:0.92s"><text x="24" y="161" font-size="13.5" fill="#8a8f86">plugins</text><text x="116" y="161" font-size="13.5" fill="#e8e6e1">deslop, shush</text></g><g class="row" style="animation-delay:1.06s"><text x="24" y="182" font-size="13.5" fill="#8a8f86">stack</text><text x="116" y="182" font-size="13.5" fill="#e8e6e1">Python, TypeScript, Swift</text></g><g class="row" style="animation-delay:1.20s"><text x="24" y="203" font-size="13.5" fill="#8a8f86">web</text><text x="116" y="203" font-size="13.5" fill="#e8e6e1">seanlindsay.xyz</text></g><g class="row" style="animation-delay:1.34s"><text x="24" y="224" font-size="13.5" fill="#8a8f86">mail</text><text x="116" y="224" font-size="13.5" fill="#e8e6e1">seanlindsay2008@gmail.com</text></g><g class="row" style="animation-delay:1.68s"><rect x="24" y="242" width="16" height="9" rx="2" fill="#1d1d1b"/><rect x="46" y="242" width="16" height="9" rx="2" fill="#383934"/><rect x="68" y="242" width="16" height="9" rx="2" fill="#5c5f58"/><rect x="90" y="242" width="16" height="9" rx="2" fill="#7a7873"/><rect x="112" y="242" width="16" height="9" rx="2" fill="#8a8f86"/><rect x="134" y="242" width="16" height="9" rx="2" fill="#c9cdc4"/><rect x="156" y="242" width="16" height="9" rx="2" fill="#e8e6e1"/></g></svg>