<svg xmlns="http://www.w3.org/2000/svg" width="410" height="266" viewBox="0 0 410 266" font-family="ui-monospace, 'SF Mono', 'Cascadia Code', Menlo, Consolas, monospace" role="img" aria-label="Robots passing a spec through plan, build, verify to a merged PR"><style>
@keyframes bob { from { transform: translateY(0) } to { transform: translateY(-3px) } }
@keyframes blinkeye { 0%, 91%, 100% { opacity: 1 } 93%, 96% { opacity: 0.15 } }
@keyframes carry {
  0%   { transform: translate(24px, 142px); opacity: 0 }
  4%   { transform: translate(24px, 142px); opacity: 1 }
  16%  { transform: translate(55px, 142px) }
  30%  { transform: translate(55px, 142px) }
  42%  { transform: translate(169px, 142px) }
  56%  { transform: translate(169px, 142px) }
  68%  { transform: translate(283px, 142px) }
  82%  { transform: translate(283px, 142px) }
  94%  { transform: translate(348px, 58px); opacity: 1 }
  96%, 100% { transform: translate(348px, 58px); opacity: 0 }
}
@keyframes ink0 { 0%, 18% { opacity: 0 } 24%, 100% { opacity: 1 } }
@keyframes ink1 { 0%, 24% { opacity: 0 } 30%, 100% { opacity: 1 } }
@keyframes ink2 { 0%, 44% { opacity: 0 } 50%, 100% { opacity: 1 } }
@keyframes ink3 { 0%, 50% { opacity: 0 } 56%, 100% { opacity: 1 } }
@keyframes stampin { 0%, 70% { opacity: 0 } 76%, 100% { opacity: 1 } }
@keyframes prglow { 0%, 88% { opacity: 0.45 } 94%, 100% { opacity: 1 } }
text { font-family: ui-monospace, 'SF Mono', 'Cascadia Code', Menlo, Consolas, monospace }
@media (prefers-reduced-motion: reduce) { * { animation: none !important } }
</style><rect width="410" height="266" rx="12" fill="#0d0d0c" stroke="#2a2926"/><rect width="410" height="34" rx="12" fill="#151513"/><rect y="22" width="410" height="12" fill="#151513"/><circle cx="22" cy="17" r="5.5" fill="#2a2926"/><circle cx="42" cy="17" r="5.5" fill="#2a2926"/><circle cx="62" cy="17" r="5.5" fill="#8a8f86"/><text x="205" y="21" font-size="12" fill="#7a7873" text-anchor="middle">$ nightcrew run</text><line x1="24" y1="164" x2="386" y2="164" stroke="#2a2926" stroke-width="2"/><g transform="translate(64,150)"><g style="animation: bob 2.6s ease-in-out 0s infinite alternate">
<line x1="18" y1="-34" x2="18" y2="-42" stroke="#7a7873" stroke-width="2"/>
<circle cx="18" cy="-44" r="3" fill="#8a8f86"/>
<rect x="2" y="-34" width="32" height="24" rx="5" fill="#151513" stroke="#8a8f86" stroke-width="1.5"/>
<circle cx="12" cy="-22" r="2.6" fill="#e8e6e1" style="animation: blinkeye 4.7s linear 1.0s infinite"/>
<circle cx="24" cy="-22" r="2.6" fill="#e8e6e1" style="animation: blinkeye 4.7s linear 1.0s infinite"/>
<rect x="6" y="-8" width="24" height="20" rx="4" fill="#151513" stroke="#7a7873" stroke-width="1.5"/>
<line x1="6" y1="2" x2="-4" y2="8" stroke="#7a7873" stroke-width="2" stroke-linecap="round"/>
<line x1="30" y1="2" x2="40" y2="8" stroke="#7a7873" stroke-width="2" stroke-linecap="round"/>
</g><text x="18" y="28" font-size="10.5" fill="#7a7873" text-anchor="middle">plan</text>
</g><g transform="translate(178,150)"><g style="animation: bob 2.6s ease-in-out 0.9s infinite alternate">
<line x1="18" y1="-34" x2="18" y2="-42" stroke="#7a7873" stroke-width="2"/>
<circle cx="18" cy="-44" r="3" fill="#8a8f86"/>
<rect x="2" y="-34" width="32" height="24" rx="5" fill="#151513" stroke="#8a8f86" stroke-width="1.5"/>
<circle cx="12" cy="-22" r="2.6" fill="#e8e6e1" style="animation: blinkeye 4.7s linear 1.9s infinite"/>
<circle cx="24" cy="-22" r="2.6" fill="#e8e6e1" style="animation: blinkeye 4.7s linear 1.9s infinite"/>
<rect x="6" y="-8" width="24" height="20" rx="4" fill="#151513" stroke="#7a7873" stroke-width="1.5"/>
<line x1="6" y1="2" x2="-4" y2="8" stroke="#7a7873" stroke-width="2" stroke-linecap="round"/>
<line x1="30" y1="2" x2="40" y2="8" stroke="#7a7873" stroke-width="2" stroke-linecap="round"/>
</g><text x="18" y="28" font-size="10.5" fill="#7a7873" text-anchor="middle">build</text>
</g><g transform="translate(292,150)"><g style="animation: bob 2.6s ease-in-out 1.7s infinite alternate">
<line x1="18" y1="-34" x2="18" y2="-42" stroke="#7a7873" stroke-width="2"/>
<circle cx="18" cy="-44" r="3" fill="#8a8f86"/>
<rect x="2" y="-34" width="32" height="24" rx="5" fill="#151513" stroke="#8a8f86" stroke-width="1.5"/>
<circle cx="12" cy="-22" r="2.6" fill="#e8e6e1" style="animation: blinkeye 4.7s linear 2.7s infinite"/>
<circle cx="24" cy="-22" r="2.6" fill="#e8e6e1" style="animation: blinkeye 4.7s linear 2.7s infinite"/>
<rect x="6" y="-8" width="24" height="20" rx="4" fill="#151513" stroke="#7a7873" stroke-width="1.5"/>
<line x1="6" y1="2" x2="-4" y2="8" stroke="#7a7873" stroke-width="2" stroke-linecap="round"/>
<line x1="30" y1="2" x2="40" y2="8" stroke="#7a7873" stroke-width="2" stroke-linecap="round"/>
</g><text x="18" y="28" font-size="10.5" fill="#7a7873" text-anchor="middle">verify</text>
</g><g style="animation: carry 9s ease-in-out infinite"><rect x="0" y="0" width="18" height="20" rx="2" fill="#0d0d0c" stroke="#e8e6e1" stroke-width="1.3"/><line x1="3" y1="4.0" x2="15" y2="4.0" stroke="#7a7873" stroke-width="1.2" opacity="0" style="animation: ink0 9s linear infinite"/><line x1="3" y1="7.5" x2="15" y2="7.5" stroke="#7a7873" stroke-width="1.2" opacity="0" style="animation: ink1 9s linear infinite"/><line x1="3" y1="11.0" x2="15" y2="11.0" stroke="#7a7873" stroke-width="1.2" opacity="0" style="animation: ink2 9s linear infinite"/><line x1="3" y1="14.5" x2="15" y2="14.5" stroke="#7a7873" stroke-width="1.2" opacity="0" style="animation: ink3 9s linear infinite"/><text x="9" y="14" font-size="9" fill="#8a8f86" text-anchor="middle" opacity="0" style="animation: stampin 9s linear infinite">✓</text></g><g style="animation: prglow 9s linear infinite"><text x="352" y="70" font-size="12" fill="#e8e6e1" xml:space="preserve">PR ✓</text><text x="342" y="86" font-size="9.5" fill="#7a7873">merged</text></g><text x="24" y="240" font-size="10.5" fill="#7a7873">spec → plan → build → verify → PR · no PR ships unverified</text></svg>